HIERARCHY
ROOT Hips
{
	OFFSET -0.001795 -0.223333 0.028219
	CHANNELS 6 Xposition Yposition Zposition Zrotation Yrotation Xrotation 
	JOINT LeftUpLeg
	{
		OFFSET 0.069520 -0.091406 -0.006815
		CHANNELS 3 Zrotation Yrotation Xrotation
		JOINT LeftLeg
		{
			OFFSET 0.034277 -0.375199 -0.004496
			CHANNELS 3 Zrotation Yrotation Xrotation
			JOINT LeftFoot
			{
				OFFSET -0.013596 -0.397961 -0.043693
				CHANNELS 3 Zrotation Yrotation Xrotation
				JOINT LeftToe
				{
					OFFSET 0.026358 -0.055791 0.119288
					CHANNELS 3 Zrotation Yrotation Xrotation
					End Site
					{
						OFFSET 0.000000 0.000000 0.000000
					}
				}
			}
		}
	}
	JOINT RightUpLeg
	{
		OFFSET -0.067670 -0.090522 -0.004320
		CHANNELS 3 Zrotation Yrotation Xrotation
		JOINT RightLeg
		{
			OFFSET -0.038290 -0.382569 -0.008850
			CHANNELS 3 Zrotation Yrotation Xrotation
			JOINT RightFoot
			{
				OFFSET 0.015774 -0.398415 -0.042312
				CHANNELS 3 Zrotation Yrotation Xrotation
				JOINT RightToe
				{
					OFFSET -0.025372 -0.048144 0.123348
					CHANNELS 3 Zrotation Yrotation Xrotation
					End Site
					{
						OFFSET 0.000000 0.000000 0.000000
					}
				}
			}
		}
	}
	JOINT Spine
	{
		OFFSET -0.002533 0.108963 -0.026696
		CHANNELS 3 Zrotation Yrotation Xrotation
		JOINT Spine1
		{
			OFFSET 0.005487 0.135180 0.001092
			CHANNELS 3 Zrotation Yrotation Xrotation
			JOINT Spine2
			{
				OFFSET 0.001457 0.052922 0.025425
				CHANNELS 3 Zrotation Yrotation Xrotation
				JOINT Neck
				{
					OFFSET -0.002778 0.213870 -0.042857
					CHANNELS 3 Zrotation Yrotation Xrotation
					JOINT Head
					{
						OFFSET 0.005152 0.064970 0.051349
						CHANNELS 3 Zrotation Yrotation Xrotation
						End Site
						{
							OFFSET 0.000000 0.000000 0.000000
						}
					}
				}
				JOINT LeftShoulder
				{
					OFFSET 0.078845 0.121749 -0.034090
					CHANNELS 3 Zrotation Yrotation Xrotation
					JOINT LeftArm
					{
						OFFSET 0.090977 0.030469 -0.008868
						CHANNELS 3 Zrotation Yrotation Xrotation
						JOINT LeftForeArm
						{
							OFFSET 0.259612 -0.012772 -0.027456
							CHANNELS 3 Zrotation Yrotation Xrotation
							JOINT LeftHand
							{
								OFFSET 0.249234 0.008986 -0.001171
								CHANNELS 3 Zrotation Yrotation Xrotation
								End Site
								{
									OFFSET 0.000000 0.000000 0.000000
								}
							}
						}
					}
				}
				JOINT RightShoulder
				{
					OFFSET -0.081759 0.118833 -0.038615
					CHANNELS 3 Zrotation Yrotation Xrotation
					JOINT RightArm
					{
						OFFSET -0.096012 0.032551 -0.009143
						CHANNELS 3 Zrotation Yrotation Xrotation
						JOINT RightForeArm
						{
							OFFSET -0.253742 -0.013329 -0.021401
							CHANNELS 3 Zrotation Yrotation Xrotation
							JOINT RightHand
							{
								OFFSET -0.255298 0.007772 -0.005559
								CHANNELS 3 Zrotation Yrotation Xrotation
								End Site
								{
									OFFSET 0.000000 0.000000 0.000000
								}
							}
						}
					}
				}
			}
		}
	}
}
MOTION
Frames: 10
Frame Time: 0.050000
-0.092570 0.714304 0.405797 -15.052493 66.055702 -13.227337 51.247815 -9.013325 -43.438016 -27.031195 0.783756 26.814759 17.584972 34.112352 22.967338 0.000000 0.000000 0.000000 -6.404451 -16.770578 -48.156042 -19.266154 -6.556018 81.023121 8.698153 -5.968508 59.158031 0.000000 0.000000 0.000000 -36.141055 -6.620667 58.244728 3.912019 0.594936 -20.658561 15.148884 32.705003 30.906880 -2.287192 9.199489 -44.715322 0.000000 0.000000 0.000000 -24.802792 -30.080812 -4.551990 -29.508122 -13.250496 3.593923 -32.373525 -57.917760 12.688869 0.000000 0.000000 0.000000 0.660368 28.029725 13.406367 30.677894 44.153244 10.714705 38.084949 82.432168 45.597228 0.000000 0.000000 0.000000 
-0.093460 0.714207 0.404902 -14.461031 65.491572 -13.096095 50.397564 -8.784577 -43.407350 -26.395585 0.766927 28.393612 17.276157 33.757063 22.968243 0.000000 0.000000 0.000000 -7.540271 -16.672986 -46.818125 -17.807990 -7.945384 80.378665 8.435324 -5.841578 58.181893 0.000000 0.000000 0.000000 -35.075909 -6.732904 58.237256 3.615887 0.690153 -20.341673 14.348378 31.783576 30.444324 -1.747939 8.986298 -44.592209 0.000000 0.000000 0.000000 -25.945965 -30.722640 -4.203159 -28.188229 -13.922317 3.732185 -29.056407 -56.964630 11.266105 0.000000 0.000000 0.000000 -0.074714 28.329676 12.935148 31.114484 44.311723 11.048525 38.089625 82.021508 45.232128 0.000000 0.000000 0.000000 
-0.094136 0.713864 0.403866 -13.586984 64.445557 -12.606541 50.114036 -8.500733 -42.867400 -26.466213 0.901951 29.218312 17.457512 33.805057 23.233309 0.000000 0.000000 0.000000 -8.023041 -16.365009 -46.338010 -16.888174 -8.377414 79.972177 8.340508 -5.733671 57.579267 0.000000 0.000000 0.000000 -34.595423 -6.492488 57.853553 3.785507 0.598384 -19.628127 13.557266 31.683962 29.832496 -1.634427 8.821579 -44.649315 0.000000 0.000000 0.000000 -25.980124 -31.256608 -3.693058 -27.592672 -14.896419 3.865192 -26.709725 -56.871321 10.107182 0.000000 0.000000 0.000000 -1.101571 28.472185 12.348963 32.338048 44.747254 11.954479 35.981379 81.786645 43.222970 0.000000 0.000000 0.000000 
-0.094733 0.713596 0.402471 -13.494219 63.845879 -12.607300 50.326187 -8.349561 -42.886965 -26.797112 1.068039 29.824470 17.627334 33.943676 23.721845 0.000000 0.000000 0.000000 -8.284747 -16.241685 -46.142565 -16.131124 -8.818411 79.718247 8.284314 -5.690631 57.280267 0.000000 0.000000 0.000000 -33.452490 -6.626443 57.834557 3.548527 0.687038 -19.494801 12.758776 30.320094 29.403984 -1.213541 8.690838 -44.220671 0.000000 0.000000 0.000000 -26.338813 -31.313424 -3.167619 -26.805784 -15.430085 3.827658 -25.242585 -57.134868 9.618186 0.000000 0.000000 0.000000 -1.316963 29.634193 12.548493 32.209634 44.874466 11.840385 34.322626 81.050112 40.824365 0.000000 0.000000 0.000000 
-0.094725 0.713340 0.400433 -13.221445 62.866981 -12.306878 50.875386 -8.150747 -42.236626 -27.499303 1.329314 29.422101 18.219817 34.422051 23.981632 0.000000 0.000000 0.000000 -8.522549 -15.964954 -46.003314 -15.060151 -9.278591 79.174543 8.133853 -5.619520 56.677991 0.000000 0.000000 0.000000 -33.562500 -6.294982 57.870070 3.917805 0.516657 -19.054668 12.422732 30.750790 29.093441 -0.872388 8.481543 -44.578666 0.000000 0.000000 0.000000 -25.640750 -32.079152 -2.356410 -26.582309 -15.902814 3.819999 -23.837773 -58.023352 8.820042 0.000000 0.000000 0.000000 -1.735002 29.723806 12.353054 32.471434 45.155932 12.178577 32.439025 80.880837 39.016903 0.000000 0.000000 0.000000 
-0.093242 0.714897 0.397125 -12.690067 61.751539 -11.312244 51.681608 -7.916756 -42.001577 -28.803836 1.747458 28.960597 19.158449 35.196540 25.124357 0.000000 0.000000 0.000000 -8.740385 -15.872579 -46.281038 -13.750703 -9.631002 78.239254 8.037697 -5.532579 56.249937 0.000000 0.000000 0.000000 -32.939286 -6.038894 57.419773 3.594876 0.613734 -19.025908 11.897124 29.061459 28.617134 -0.813392 8.473593 -43.690628 0.000000 0.000000 0.000000 -25.469847 -31.449290 -1.804976 -26.561396 -16.804905 3.739466 -22.891670 -57.761534 8.424820 0.000000 0.000000 0.000000 -0.672091 30.347780 13.090184 31.871331 46.314379 11.965395 30.796431 79.515982 36.108141 0.000000 0.000000 0.000000 
-0.089273 0.717759 0.392055 -12.220876 60.187117 -10.506887 51.773348 -7.541622 -41.312886 -29.407656 2.064676 29.045627 20.045752 35.934377 25.557760 0.000000 0.000000 0.000000 -9.103287 -15.668124 -46.468557 -12.269466 -9.918853 77.200305 8.169160 -5.458802 56.416922 0.000000 0.000000 0.000000 -33.077180 -5.469408 57.336447 3.719496 0.543920 -18.864614 11.832597 29.052204 28.092885 -0.903778 8.511902 -43.419494 0.000000 0.000000 0.000000 -24.685076 -31.783382 -0.832432 -26.933408 -17.106573 3.599324 -23.799427 -58.716446 8.956426 0.000000 0.000000 0.000000 1.515367 30.719864 14.566824 30.812653 46.736177 11.105722 28.328824 77.616644 32.262394 0.000000 0.000000 0.000000 
-0.082404 0.721072 0.384855 -12.062087 59.058805 -9.665962 52.097898 -7.284380 -40.978678 -30.568642 2.398545 28.559030 21.302445 37.151121 25.769770 0.000000 0.000000 0.000000 -10.105379 -15.736230 -45.992086 -10.117279 -10.958381 75.333372 8.030857 -5.309319 55.824213 0.000000 0.000000 0.000000 -32.702398 -5.148700 56.889810 4.201654 0.366536 -18.529574 10.999273 28.013204 27.355024 -0.823587 8.505858 -42.007025 0.000000 0.000000 0.000000 -25.588288 -31.607695 -0.525240 -26.313485 -16.898128 3.397789 -24.136269 -58.433905 9.659779 0.000000 0.000000 0.000000 4.299102 30.966755 16.327308 29.870669 47.297549 10.168696 26.340194 75.664063 28.983427 0.000000 0.000000 0.000000 
-0.072836 0.724810 0.375489 -11.397810 57.182716 -8.431401 51.815218 -6.766529 -40.669132 -31.682073 2.917348 29.299162 22.791180 38.526900 26.115583 0.000000 0.000000 0.000000 -10.386876 -15.532999 -46.502548 -9.182888 -10.398659 73.910546 8.322431 -5.147820 56.180596 0.000000 0.000000 0.000000 -32.548896 -4.497765 56.222074 4.205356 0.335196 -18.096179 10.686390 27.438677 26.679419 -1.454544 8.704955 -41.737276 0.000000 0.000000 0.000000 -25.087494 -31.688644 0.338799 -26.768105 -17.088809 3.214331 -24.457981 -59.451831 10.093527 0.000000 0.000000 0.000000 7.221785 30.923988 18.060630 28.606955 47.268683 8.869968 22.617012 73.408230 24.437993 0.000000 0.000000 0.000000 
-0.061100 0.727371 0.364301 -10.850680 55.489267 -7.157334 51.801952 -6.298813 -40.363002 -33.468538 3.508583 29.286461 24.754238 40.486723 26.043156 0.000000 0.000000 0.000000 -11.276277 -15.706834 -46.791875 -7.698989 -10.312344 72.282850 8.549051 -4.970313 56.265126 0.000000 0.000000 0.000000 -31.447532 -4.137201 55.115383 4.469631 0.189034 -17.289190 9.301430 26.260157 25.294191 -1.756058 8.705337 -40.242925 0.000000 0.000000 0.000000 -26.460532 -32.188525 0.944039 -26.615073 -16.869965 3.151582 -26.165367 -58.804908 11.492090 0.000000 0.000000 0.000000 10.461032 30.570233 19.890463 28.398733 46.052077 7.543885 18.019674 71.685127 19.990261 0.000000 0.000000 0.000000 
